<svg width="137" height="23" viewBox="0 0 137 23" fill="none" xmlns="http://www.w3.org/2000/svg">
<path d="M11.6464 0.898438L15.0742 7.77971L22.3142 9.10561L17.1904 14.6819L18.2365 22.3814L11.6464 18.9493L5.05227 22.3814L6.09844 14.6819L0.978516 9.10561L8.21457 7.77971L11.6464 0.898438Z" fill="#93704A"/>
<path d="M39.8437 0.898438L43.2714 7.77971L50.5115 9.10561L45.3877 14.6819L46.4337 22.3814L39.8437 18.9493L33.2495 22.3814L34.2957 14.6819L29.1758 9.10561L36.4119 7.77971L39.8437 0.898438Z" fill="#93704A"/>
<path d="M68.7123 0.898438L72.3418 7.77971L80.0077 9.10561L74.5824 14.6819L75.6902 22.3814L68.7123 18.9493L61.7304 22.3814L62.8381 14.6819L57.417 9.10561L65.0788 7.77971L68.7123 0.898438Z" fill="#93704A"/>
<path d="M97.579 0.898438L101.007 7.77971L108.247 9.10561L103.123 14.6819L104.169 22.3814L97.579 18.9493L90.9848 22.3814L92.0311 14.6819L86.9111 9.10561L94.1473 7.77971L97.579 0.898438Z" fill="#93704A"/>
<path d="M125.775 0.898438V7.77971V9.10561V15.5818V18.9493L119.181 22.3814L120.227 14.6819L115.107 9.10561L122.344 7.77971L125.775 0.898438Z" fill="#93704A"/>
<path d="M125.775 0.898438V7.77971V9.10561V15.5818V18.9493L132.37 22.3814L131.323 14.6819L136.443 9.10561L129.207 7.77971L125.775 0.898438Z" fill="#93704A" fill-opacity="0.6"/>
</svg>
