<svg height="512" viewBox="0 0 64 64" width="512" xmlns="http://www.w3.org/2000/svg"><g id="bill-money-receipt-payment-pay"><path d="m32 16c1.221 0 2 .592 2 1a1 1 0 0 0 2 0c0-1.421-1.259-2.571-3-2.9v-1.1a1 1 0 0 0 -2 0v1.1c-1.741.327-3 1.477-3 2.9 0 1.682 1.757 3 4 3 1.221 0 2 .592 2 1s-.779 1-2 1-2-.592-2-1a1 1 0 0 0 -2 0c0 1.421 1.259 2.571 3 2.9v1.1a1 1 0 0 0 2 0v-1.1c1.741-.327 3-1.477 3-2.9 0-1.682-1.757-3-4-3-1.221 0-2-.592-2-1s.779-1 2-1z"/><path d="m28 10h8a1 1 0 0 0 0-2h-8a1 1 0 0 0 0 2z"/><path d="m28 30h8a1 1 0 0 0 0-2h-8a1 1 0 0 0 0 2z"/><path d="m20 42h24a1 1 0 0 0 0-2h-24a1 1 0 0 0 0 2z"/><path d="m20 38h24a1 1 0 0 0 0-2h-24a1 1 0 0 0 0 2z"/><path d="m40 44h-20a1 1 0 0 0 0 2h20a1 1 0 0 0 0-2z"/><path d="m40 48h-20a1 1 0 0 0 0 2h20a1 1 0 0 0 0-2z"/><path d="m40 30h1a1 1 0 0 0 0-2h-1a1 1 0 0 0 0 2z"/><path d="m23 30h1a1 1 0 0 0 0-2h-1a1 1 0 0 0 0 2z"/><path d="m40 10h1a1 1 0 0 0 0-2h-1a1 1 0 0 0 0 2z"/><path d="m23 10h1a1 1 0 0 0 0-2h-1a1 1 0 0 0 0 2z"/><path d="m53 42.05v-18.05h7a1 1 0 0 0 1-1v-16a5 5 0 0 0 -5-5h-40a5 5 0 0 0 -5 5v54a.987.987 0 0 0 .62.92.838.838 0 0 0 .38.08 1.007 1.007 0 0 0 .71-.29l3.29-3.3 3.29 3.3a1.008 1.008 0 0 0 1.42 0l3.29-3.3 3.29 3.3a1.008 1.008 0 0 0 1.42 0l3.29-3.3 3.29 3.3a1.008 1.008 0 0 0 1.42 0l3.29-3.3 3.29 3.3a1.008 1.008 0 0 0 1.42 0l1.54-1.54a10 10 0 1 0 6.75-18.12zm0-35.05a3 3 0 0 1 6 0v15h-6zm-9 52.59-3.29-3.3a1.008 1.008 0 0 0 -1.42 0l-3.29 3.3-3.29-3.3a1.008 1.008 0 0 0 -1.42 0l-3.29 3.3-3.29-3.3a1.008 1.008 0 0 0 -1.42 0l-3.29 3.3-3.29-3.3a1.008 1.008 0 0 0 -1.42 0l-2.29 2.3v-51.59a3.009 3.009 0 0 1 3-3h36.03a4.924 4.924 0 0 0 -1.03 3v35.05a9.979 9.979 0 0 0 -6.26 16.8zm8 .41a8 8 0 1 1 8-8 8.011 8.011 0 0 1 -8 8z"/><path d="m57.364 48.636a1 1 0 0 0 -1.414 0l-4.95 4.95-2.122-2.122a1 1 0 0 0 -1.414 1.414l2.829 2.829a1 1 0 0 0 1.414 0l5.657-5.657a1 1 0 0 0 0-1.414z"/></g></svg>