<?xml version="1.0" encoding="UTF-8" standalone="no"?>
<!-- Created with Inkscape (http://www.inkscape.org/) -->

<svg
   version="1.1"
   id="svg2730"
   xml:space="preserve"
   width="682.66669"
   height="682.66669"
   viewBox="0 0 682.66669 682.66669"
   xmlns="http://www.w3.org/2000/svg"
   xmlns:svg="http://www.w3.org/2000/svg"><defs
     id="defs2734"><clipPath
       clipPathUnits="userSpaceOnUse"
       id="clipPath2744"><path
         d="M 0,512 H 512 V 0 H 0 Z"
         id="path2742" /></clipPath></defs><g
     id="g2736"
     transform="matrix(1.3333333,0,0,-1.3333333,0,682.66667)"><g
       id="g2738"><g
         id="g2740"
         clip-path="url(#clipPath2744)"><g
           id="g2746"
           transform="translate(422.2344,150.1807)"><path
             d="M 0,0 H -263.05 L -367.192,-78.681 V 0 h -27.836 c -9.468,0 -17.206,7.737 -17.206,17.204 V 220.68 c 0,9.438 7.738,17.176 17.206,17.176 h 35.546"
             style="fill:none;stroke:#000000;stroke-width:20.148;stroke-linecap:round;stroke-linejoin:round;stroke-miterlimit:10;stroke-dasharray:none;stroke-opacity:1"
             id="path2748" /></g><g
           id="g2750"
           transform="translate(238.7803,202.6436)"><path
             d="M 0,0 H 114.007 L 218.178,-78.681 V 0 h 27.836 c 9.439,0 17.206,7.738 17.206,17.205 v 203.447 c 0,9.467 -7.739,17.204 -17.206,17.204 h -404.865 c -9.439,0 -17.177,-7.737 -17.177,-17.204 V 17.205 C -176.028,7.767 -168.29,0 -158.851,0 H -89.8"
             style="fill:none;stroke:#000000;stroke-width:20.148;stroke-linecap:round;stroke-linejoin:round;stroke-miterlimit:10;stroke-dasharray:none;stroke-opacity:1"
             id="path2752" /></g><g
           id="g2754"
           transform="translate(305.4775,265.8496)"><path
             d="M 0,0 -48.244,114.421"
             style="fill:none;stroke:#000000;stroke-width:20.148;stroke-linecap:round;stroke-linejoin:round;stroke-miterlimit:10;stroke-dasharray:none;stroke-opacity:1"
             id="path2756" /></g><g
           id="g2758"
           transform="translate(208.96,265.8496)"><path
             d="M 0,0 48.273,114.421"
             style="fill:none;stroke:#000000;stroke-width:20.148;stroke-linecap:round;stroke-linejoin:round;stroke-miterlimit:10;stroke-dasharray:none;stroke-opacity:1"
             id="path2760" /></g><g
           id="g2762"
           transform="translate(288.2998,306.6348)"><path
             d="M 0,0 H -62.134"
             style="fill:none;stroke:#000000;stroke-width:20.148;stroke-linecap:round;stroke-linejoin:round;stroke-miterlimit:10;stroke-dasharray:none;stroke-opacity:1"
             id="path2764" /></g><g
           id="g2766"
           transform="translate(387.5273,388.0371)"><path
             d="m 0,0 c 27.892,0 50.499,-25.875 50.499,-57.797 0,-31.923 -22.607,-57.829 -50.499,-57.829 -27.893,0 -50.527,25.906 -50.527,57.829 C -50.527,-25.875 -27.893,0 0,0 Z"
             style="fill:none;stroke:#000000;stroke-width:20.148;stroke-linecap:round;stroke-linejoin:round;stroke-miterlimit:10;stroke-dasharray:none;stroke-opacity:1"
             id="path2768" /></g><g
           id="g2770"
           transform="translate(396.5957,313.5605)"><path
             d="M 0,0 51.071,-50.688"
             style="fill:none;stroke:#000000;stroke-width:20.148;stroke-linecap:round;stroke-linejoin:round;stroke-miterlimit:10;stroke-dasharray:none;stroke-opacity:1"
             id="path2772" /></g><g
           id="g2774"
           transform="translate(120.6904,380.2705)"><path
             d="M 0,0 H 64.147"
             style="fill:none;stroke:#000000;stroke-width:20.148;stroke-linecap:round;stroke-linejoin:round;stroke-miterlimit:10;stroke-dasharray:none;stroke-opacity:1"
             id="path2776" /></g><g
           id="g2778"
           transform="translate(120.6904,262.873)"><path
             d="M 0,0 V 117.397"
             style="fill:none;stroke:#000000;stroke-width:20.148;stroke-linecap:round;stroke-linejoin:round;stroke-miterlimit:10;stroke-dasharray:none;stroke-opacity:1"
             id="path2780" /></g><g
           id="g2782"
           transform="translate(120.6904,327.8643)"><path
             d="M 0,0 H 64.147"
             style="fill:none;stroke:#000000;stroke-width:20.148;stroke-linecap:round;stroke-linejoin:round;stroke-miterlimit:10;stroke-dasharray:none;stroke-opacity:1"
             id="path2784" /></g><g
           id="g2786"
           transform="translate(193.9082,202.6436)"><path
             d="M 0,0 H -0.028"
             style="fill:none;stroke:#000000;stroke-width:20.148;stroke-linecap:round;stroke-linejoin:round;stroke-miterlimit:10;stroke-dasharray:none;stroke-opacity:1"
             id="path2788" /></g></g></g></g></svg>
