<svg height="512" viewBox="0 0 512 512" width="512" xmlns="http://www.w3.org/2000/svg"><g id="Out_line" data-name="Out line"><path d="m136 272h32v16h-32z"/><path d="m184 272h64v16h-64z"/><path d="m104 304h48v16h-48z"/><path d="m168 304h48v16h-48z"/><path d="m232 304h32v16h-32z"/><path d="m104 336h32v16h-32z"/><path d="m152 336h48v16h-48z"/><path d="m216 336h48v16h-48z"/><path d="m120 368h48v16h-48z"/><path d="m184 368h32v16h-32z"/><path d="m184 216a112 112 0 1 0 112 112 112.12706 112.12706 0 0 0 -112-112zm0 208a96 96 0 1 1 96-96 96.10874 96.10874 0 0 1 -96 96z"/><path d="m454.55762 88.83594a191.54424 191.54424 0 0 0 -150.55762-72.83594c-105.86914 0-192 86.13086-192 192 0 1.55835.01978 3.10767.05615 4.63965a135.83312 135.83312 0 0 0 -40.20752 192.19726l-15.84863 15.84864-10.34277-10.34278a8.003 8.003 0 0 0 -11.31446 0l-16 16 11.31446 11.31446 10.34277-10.34375 44.68652 44.68652-10.34375 10.34277 11.31446 11.31446 16-16a8.00122 8.00122 0 0 0 0-11.31446l-10.34278-10.34277 15.84864-15.84863a135.83308 135.83308 0 0 0 192.19677-40.20679q2.29908.0531 4.64014.05542a191.99785 191.99785 0 0 0 192-192 190.006 190.006 0 0 0 -41.44238-119.16406zm-12.54 9.9375a176.01587 176.01587 0 0 1 -1.52344 220.33227l-9.33789-18.68286a8.00017 8.00017 0 0 0 -9.09668-4.18359l-28.30566 7.07617-24.04883-18.03711 13.72265-34.30762a8.00079 8.00079 0 0 0 -1.7705-8.62793l-44.27051-44.26953 14.041-35.10254a7.996 7.996 0 0 0 -1.28222-8.09179l-36.53809-43.84668 38.904-72.25342a177.05428 177.05428 0 0 1 89.50613 59.99463zm-258.01762-19.39307v40.61963a8.00039 8.00039 0 0 0 8 8h12.68652l8 8-24 24h-12.68652a8.00039 8.00039 0 0 0 -8 8v24a7.953 7.953 0 0 0 .06128.939 134.90079 134.90079 0 0 0 -40.011 11.10889 175.5466 175.5466 0 0 1 55.94972-124.66752zm-104 365.30518-12.68555-12.68555 14.43409-14.43408a137.20892 137.20892 0 0 0 12.68554 12.68554zm104 3.31445a120 120 0 1 1 120-120 120.13623 120.13623 0 0 1 -120 120zm191.43555-79.09863a174.47343 174.47343 0 0 1 -67.48316 15.04809 135.21457 135.21457 0 0 0 12.04761-55.94946c0-73.86816-59.19775-134.16895-132.64331-135.95752l-3.35669-3.35596v-12.68652h8a8.00235 8.00235 0 0 0 5.65723-2.34277l32-32a8.00122 8.00122 0 0 0 0-11.31446l-16-16a8.00235 8.00235 0 0 0 -5.65723-2.34277h-8v-45.89209a175.05331 175.05331 0 0 1 104-34.10791 177.46261 177.46261 0 0 1 32.38477 2.97949l-39.42872 73.22751a7.99827 7.99827 0 0 0 .89844 8.91406l36.94629 44.33594-14.22851 35.5723a8.00079 8.00079 0 0 0 1.7705 8.62793l44.27051 44.26953-14.041 35.10254a7.99884 7.99884 0 0 0 2.62793 9.37109l32 24a8.002 8.002 0 0 0 6.74023 1.36035l25.77344-6.44336 9.28271 18.57373a175.19316 175.19316 0 0 1 -53.56104 37.01026z"/></g></svg>