<svg id="LineExpanded" enable-background="new 0 0 64 64" height="512" viewBox="0 0 64 64" width="512" xmlns="http://www.w3.org/2000/svg"><path d="m60 11h-5v-4c0-.553-.448-1-1-1h-5v-4c0-.553-.448-1-1-1h-35c-.265 0-.52.105-.707.293l-7 7c-.188.187-.293.441-.293.707v43c0 .553.448 1 1 1h5v4c0 .553.448 1 1 1h5v4c0 .553.448 1 1 1h42c.552 0 1-.447 1-1v-50c0-.553-.448-1-1-1zm-53 40v-41h6c.552 0 1-.447 1-1v-3h-2v2h-3.586l5-5h33.586v3h-28c-.265 0-.52.105-.707.293l-7 7c-.188.187-.293.441-.293.707v37zm6 5v-41h6c.552 0 1-.447 1-1v-3h-2v2h-3.586l5-5h33.586v3h-28c-.265 0-.52.105-.707.293l-7 7c-.188.187-.293.441-.293.707v37zm46 5h-40v-41h6c.552 0 1-.447 1-1v-3h-2v2h-3.586l5-5h33.586z"/><path d="m55 19h-14c-.552 0-1 .447-1 1v16c0 .553.448 1 1 1h.08 13.84.08c.552 0 1-.447 1-1v-16c0-.553-.448-1-1-1zm-1 2v10.737c-.815-.926-1.836-1.661-2.987-2.134.607-.702.987-1.605.987-2.603 0-2.206-1.794-4-4-4s-4 1.794-4 4c0 .998.38 1.901.987 2.602-1.151.473-2.172 1.208-2.987 2.134v-10.736zm-8 6c0-1.103.897-2 2-2s2 .897 2 2-.897 2-2 2-2-.897-2-2zm-3.651 8c.828-2.345 3.083-4 5.651-4s4.823 1.655 5.651 4z"/><path d="m26 32v3c0 .553.448 1 1 1h5c.552 0 1-.447 1-1v-3h3c.552 0 1-.447 1-1v-5c0-.553-.448-1-1-1h-3v-3c0-.553-.448-1-1-1h-5c-.552 0-1 .447-1 1v3h-3c-.552 0-1 .447-1 1v5c0 .553.448 1 1 1zm-2-5h3c.552 0 1-.447 1-1v-3h3v3c0 .553.448 1 1 1h3v3h-3c-.552 0-1 .447-1 1v3h-3v-3c0-.553-.448-1-1-1h-3z"/><path d="m29 40h24v2h-24z"/><path d="m25 44h28v2h-28z"/><path d="m25 48h28v2h-28z"/><path d="m23 56h12v2h-12z"/><path d="m43 56h12v2h-12z"/><path d="m54 15h2v2h-2z"/><path d="m50 15h2v2h-2z"/><path d="m46 15h2v2h-2z"/></svg>