<svg id="Layer_1" enable-background="new 0 0 512 512" height="512" viewBox="0 0 512 512" width="512" xmlns="http://www.w3.org/2000/svg"><g><path d="m480.787 26.509h-96.481c-4.142 0-7.5 3.358-7.5 7.5s3.358 7.5 7.5 7.5h96.481c8.94 0 16.213 7.273 16.213 16.213v284.974h-482v-284.974c0-8.94 7.273-16.213 16.213-16.213h318.092c4.142 0 7.5-3.358 7.5-7.5s-3.358-7.5-7.5-7.5h-318.092c-17.211 0-31.213 14.002-31.213 31.213v308.761c0 17.211 14.002 31.213 31.213 31.213h71.801c4.142 0 7.5-3.358 7.5-7.5s-3.358-7.5-7.5-7.5h-71.801c-8.94 0-16.213-7.273-16.213-16.213v-8.787h482v8.787c0 8.94-7.273 16.213-16.213 16.213h-343.103c-4.142 0-7.5 3.358-7.5 7.5s3.358 7.5 7.5 7.5h47.204l-7.405 42.795h-13.686c-12.407 0-22.5 10.093-22.5 22.5s10.093 22.5 22.5 22.5h184.406c12.407 0 22.5-10.093 22.5-22.5s-10.093-22.5-22.5-22.5h-13.686l-7.405-42.795h153.674c17.211 0 31.213-14.002 31.213-31.213v-308.761c.001-17.211-14.001-31.213-31.212-31.213zm-161.493 413.982h-20.418c-4.142 0-7.5 3.358-7.5 7.5s3.358 7.5 7.5 7.5h49.327c4.136 0 7.5 3.364 7.5 7.5s-3.364 7.5-7.5 7.5h-184.406c-4.136 0-7.5-3.364-7.5-7.5s3.364-7.5 7.5-7.5h100.067c4.142 0 7.5-3.358 7.5-7.5s-3.358-7.5-7.5-7.5h-71.158l7.405-42.795h111.779z"/><path d="m405.719 216.277c-2.822 0-5.405 1.584-6.685 4.099l-35.394 69.565-29.868-58.705c-1.28-2.515-3.863-4.099-6.685-4.099s-5.405 1.584-6.685 4.099l-16.191 31.823h-25.851c-4.142 0-7.5 3.358-7.5 7.5s3.358 7.5 7.5 7.5h30.45c2.822 0 5.405-1.584 6.685-4.099l11.592-22.783 29.868 58.705c1.28 2.515 3.863 4.099 6.685 4.099s5.405-1.584 6.685-4.099l35.394-69.565 17.117 33.644c1.28 2.515 3.863 4.099 6.685 4.099h30.45c4.142 0 7.5-3.358 7.5-7.5s-3.358-7.5-7.5-7.5h-25.851l-21.716-42.683c-1.28-2.516-3.863-4.1-6.685-4.1z"/><path d="m278.363 194.059h38.919c4.142 0 7.5-3.358 7.5-7.5v-78.954c0-4.142-3.358-7.5-7.5-7.5h-38.919c-4.142 0-7.5 3.358-7.5 7.5v78.954c0 4.142 3.358 7.5 7.5 7.5zm7.5-78.954h23.919v63.954h-23.919z"/><path d="m388.891 121.56h-38.919c-4.142 0-7.5 3.358-7.5 7.5v57.499c0 4.142 3.358 7.5 7.5 7.5h38.919c4.142 0 7.5-3.358 7.5-7.5v-57.499c0-4.142-3.358-7.5-7.5-7.5zm-7.5 57.499h-23.919v-42.499h23.919z"/><path d="m459.971 194.059c4.142 0 7.5-3.358 7.5-7.5v-98.749c0-4.142-3.358-7.5-7.5-7.5h-38.919c-4.142 0-7.5 3.358-7.5 7.5v98.749c0 4.142 3.358 7.5 7.5 7.5zm-31.419-98.749h23.919v83.749h-23.919z"/><path d="m221.898 165.152h-170c-4.142 0-7.5 3.358-7.5 7.5s3.358 7.5 7.5 7.5h170c4.142 0 7.5-3.358 7.5-7.5s-3.358-7.5-7.5-7.5z"/><path d="m51.898 219.993h30.422c4.142 0 7.5-3.358 7.5-7.5s-3.358-7.5-7.5-7.5h-30.422c-4.142 0-7.5 3.358-7.5 7.5s3.358 7.5 7.5 7.5z"/><path d="m221.898 204.993h-105.213c-4.142 0-7.5 3.358-7.5 7.5s3.358 7.5 7.5 7.5h105.213c4.142 0 7.5-3.358 7.5-7.5s-3.358-7.5-7.5-7.5z"/><path d="m221.898 80.31h-170c-4.142 0-7.5 3.358-7.5 7.5s3.358 7.5 7.5 7.5h170c4.142 0 7.5-3.358 7.5-7.5s-3.358-7.5-7.5-7.5z"/><path d="m51.898 135.152h105.422c4.142 0 7.5-3.358 7.5-7.5s-3.358-7.5-7.5-7.5h-105.422c-4.142 0-7.5 3.358-7.5 7.5s3.358 7.5 7.5 7.5z"/><path d="m221.898 120.152h-30.213c-4.142 0-7.5 3.358-7.5 7.5s3.358 7.5 7.5 7.5h30.213c4.142 0 7.5-3.358 7.5-7.5s-3.358-7.5-7.5-7.5z"/><path d="m229.398 251.851c0-4.142-3.358-7.5-7.5-7.5h-170c-4.142 0-7.5 3.358-7.5 7.5s3.358 7.5 7.5 7.5h170c4.142 0 7.5-3.358 7.5-7.5z"/><path d="m51.898 283.981c-4.142 0-7.5 3.358-7.5 7.5s3.358 7.5 7.5 7.5h80c4.142 0 7.5-3.358 7.5-7.5s-3.358-7.5-7.5-7.5z"/></g></svg>